# Blender 4.5.0
# www.blender.org
mtllib chair.mtl
o Cube
v 0.215220 0.358741 -0.146433
v 0.215220 0.399650 0.154631
v -0.222104 0.358741 -0.146433
v -0.222104 0.399650 0.154631
v 0.215220 0.399650 -0.176540
v -0.222104 0.399650 -0.176540
v -0.222104 0.890559 -0.221142
v 0.215220 0.890559 -0.221142
v -0.222104 0.358741 0.184737
v 0.215220 0.358741 0.184737
v 0.221558 0.358741 -0.146433
v 0.221558 0.399650 0.154631
v 0.221558 0.399650 -0.176540
v 0.221558 0.890559 -0.221142
v 0.221558 0.358741 0.184737
v -0.228442 0.358741 -0.146433
v -0.228442 0.399650 0.154631
v -0.228442 0.399650 -0.176540
v -0.228442 0.890559 -0.221142
v -0.228442 0.358741 0.184737
v 0.215220 0.358741 0.146602
v 0.215220 0.342377 0.154631
v 0.215220 0.356549 0.150616
v 0.215220 0.350559 0.153555
v -0.222104 0.342377 0.154631
v -0.222104 0.358741 0.146602
v -0.222104 0.350559 0.153555
v -0.222104 0.356549 0.150616
v -0.222104 0.399650 0.176709
v -0.222104 0.383287 0.184737
v -0.222104 0.397458 0.180723
v -0.222104 0.391469 0.183661
v 0.215220 0.383287 0.184737
v 0.215220 0.399650 0.176709
v 0.215220 0.391469 0.183661
v 0.215220 0.397458 0.180723
v 0.221558 0.342377 0.154631
v 0.221558 0.358741 0.146602
v 0.221558 0.375104 0.154631
v 0.221558 0.358741 0.162659
v 0.221558 0.350559 0.153555
v 0.221558 0.356549 0.150616
v 0.221558 0.399650 0.176709
v 0.221558 0.383287 0.184737
v 0.221558 0.397458 0.180723
v 0.221558 0.391469 0.183661
v -0.228442 0.358741 0.146602
v -0.228442 0.342377 0.154631
v -0.228442 0.358741 0.162659
v -0.228442 0.375104 0.154631
v -0.228442 0.356549 0.150616
v -0.228442 0.350559 0.153555
v -0.228442 0.383287 0.184737
v -0.228442 0.399650 0.176709
v -0.228442 0.391469 0.183661
v -0.228442 0.397458 0.180723
v 0.215220 0.399650 -0.138405
v 0.215220 0.416014 -0.146433
v 0.215220 0.401843 -0.142419
v 0.215220 0.407832 -0.145358
v -0.222104 0.399650 -0.138405
v -0.222104 0.416014 -0.146433
v -0.222104 0.401843 -0.142419
v -0.222104 0.407832 -0.145358
v 0.221558 0.416014 -0.146433
v 0.221558 0.399650 -0.138405
v 0.221558 0.383287 -0.146433
v 0.221558 0.399650 -0.154462
v 0.221558 0.407832 -0.145358
v 0.221558 0.401843 -0.142419
v -0.228442 0.399650 -0.138405
v -0.228442 0.416014 -0.146433
v -0.228442 0.399650 -0.154462
v -0.228442 0.383287 -0.146433
v -0.228442 0.401843 -0.142419
v -0.228442 0.407832 -0.145358
v -0.222104 0.890559 -0.219804
v -0.222104 0.886648 -0.217209
v 0.215220 0.886648 -0.217209
v 0.215220 0.890559 -0.219804
v 0.221558 0.890559 -0.219804
v 0.221558 0.886648 -0.217209
v -0.228442 0.886648 -0.217209
v -0.228442 0.890559 -0.219804
v 0.215220 -0.005469 -0.190554
v 0.215220 -0.009441 -0.193043
v -0.222104 -0.009441 -0.193043
v -0.222104 -0.005469 -0.190554
v 0.215220 -0.009441 -0.219135
v 0.215220 -0.005469 -0.220661
v -0.222104 -0.005469 -0.220661
v -0.222104 -0.009441 -0.219135
v -0.222104 -0.009441 0.201240
v -0.222104 -0.005480 0.198731
v 0.215220 -0.005480 0.198731
v 0.215220 -0.009441 0.201240
v -0.222104 -0.005469 0.228858
v -0.222104 -0.009441 0.227332
v 0.215220 -0.009441 0.227332
v 0.215220 -0.005469 0.228858
v 0.221558 -0.005469 0.228858
v 0.221558 -0.009441 0.227332
v 0.221558 -0.009441 0.201240
v 0.221558 -0.005480 0.198731
v -0.228442 -0.005480 0.198731
v -0.228442 -0.009441 0.201240
v -0.228442 -0.009441 0.227332
v -0.228442 -0.005469 0.228858
v 0.215220 0.375104 -0.176540
v 0.215220 0.358741 -0.168511
v 0.215220 0.342854 -0.178464
v 0.202544 0.358741 -0.176540
v 0.215220 0.368842 -0.175929
v 0.215220 0.363534 -0.174188
v 0.215220 0.359986 -0.171584
v -0.222104 0.358741 -0.168511
v -0.222104 0.375104 -0.176540
v -0.209428 0.358741 -0.176540
v -0.222104 0.342854 -0.178464
v -0.222104 0.359986 -0.171584
v -0.222104 0.363534 -0.174188
v -0.222104 0.368842 -0.175929
v 0.221558 0.358741 -0.168511
v 0.221558 0.375104 -0.176540
v 0.221558 0.359986 -0.171584
v 0.221558 0.363534 -0.174188
v 0.221558 0.368842 -0.175929
v -0.228442 0.375104 -0.176540
v -0.228442 0.358741 -0.168511
v -0.228442 0.368842 -0.175929
v -0.228442 0.363534 -0.174188
v -0.228442 0.359986 -0.171584
vn -0.0000 -0.0905 -0.9959
vn 1.0000 -0.0000 -0.0000
vn -1.0000 -0.0000 -0.0000
vn -0.0000 -0.8776 -0.4793
vn -0.0000 -0.4405 -0.8978
vn -0.0000 -0.1303 -0.9915
vn -0.0000 0.8776 0.4793
vn -0.0000 0.4405 0.8978
vn -0.0000 0.1303 0.9915
vn -0.0000 -1.0000 -0.0000
vn -0.0000 -0.0000 1.0000
vn -0.0000 1.0000 -0.0000
vn -0.0000 0.5529 0.8333
vn -0.0000 0.1487 0.9889
vn -0.0000 -0.5309 0.8474
vn -0.0000 -0.3587 -0.9335
vn -0.0000 -0.1203 0.9927
vn -0.0000 -0.5352 -0.8448
vn -0.0000 -0.3587 0.9335
vn -0.0000 -0.1258 -0.9921
vn -0.0000 0.1203 0.9927
vn 0.4194 0.0541 -0.9062
vn -0.4194 0.0541 -0.9062
vn -0.0000 -0.0971 -0.9953
vn -0.0000 -0.3115 -0.9502
vn -0.0000 -0.5919 -0.8060
vn -0.0000 -0.9267 -0.3757
vn -0.0000 -0.0000 -1.0000
vn -0.0000 0.1203 -0.9927
vt 0.625000 0.500000
vt 0.625000 0.250000
vt 0.375000 0.750000
vt 0.375000 0.749239
vt 0.375000 0.743436
vt 0.474999 0.750000
vt 0.375000 0.750000
vt 0.375000 0.006544
vt 0.375000 0.000000
vt 0.375000 0.000000
vt 0.375000 0.000000
vt 0.473310 0.000000
vt 0.125000 0.743333
vt 0.375000 0.743333
vt 0.375000 0.746667
vt 0.125000 0.746667
vt 0.125000 0.750000
vt 0.125000 0.750000
vt 0.625000 0.750000
vt 0.875000 0.750000
vt 0.875000 0.750000
vt 0.625000 0.750000
vt 0.625000 1.000000
vt 0.575001 1.000000
vt 0.575001 0.750000
vt 0.525001 1.000000
vt 0.525001 0.750000
vt 0.875000 0.750000
vt 0.875000 0.750000
vt 0.625000 1.000000
vt 0.575001 1.000000
vt 0.525001 1.000000
vt 0.625000 0.750000
vt 0.612361 0.750000
vt 0.575001 0.750000
vt 0.125000 0.750000
vt 0.125000 0.750000
vt 0.125000 0.746667
vt 0.125000 0.743333
vt 0.125000 0.500000
vt 0.375000 0.500000
vt 0.375000 1.000000
vt 0.625000 0.000000
vt 0.525001 0.000000
vt 0.575001 0.000000
vt 0.611603 0.000000
vt 0.625000 0.500761
vt 0.625000 0.506563
vt 0.525001 0.500000
vt 0.625000 0.500000
vt 0.625000 0.243333
vt 0.625000 0.246667
vt 0.625000 0.249107
vt 0.625000 0.250000
vt 0.525001 0.250000
vt 0.875000 0.500000
vt 0.875000 0.500000
vt 0.875000 0.503333
vt 0.875000 0.503333
vt 0.875000 0.506667
vt 0.625000 0.506667
vt 0.625000 0.503333
vt 0.625000 0.500000
vt 0.375000 0.250000
vt 0.875000 0.500000
vt 0.875000 0.500000
vt 0.125000 0.500000
vt 0.375000 0.500000
vt 0.375000 0.750000
vt 0.474999 0.500000
vt 0.436731 0.500000
vt 0.397219 0.500000
vt 0.380775 0.500000
vt 0.375000 0.492754
vt 0.375000 0.250000
vt 0.389900 0.250000
vt 0.473596 0.250000
vt 0.375000 0.257246
vt 0.375000 0.250000
vt 0.474999 0.500000
vt 0.436731 0.500000
vt 0.403023 0.500000
vt 0.382283 0.500000
vt 0.474999 0.250000
vt 0.436731 0.250000
vt 0.403023 0.250000
vt 0.382283 0.250000
s 0
usemtl Material
f 5/1/1 6/2/1 7/2/1 8/1/1
f 5/1/1 8/1/1 14/1/1 13/1/1
f 7/2/1 6/2/1 18/2/1 19/2/1
f 37/3/2 41/3/2 42/4/2 38/5/2 39/6/2 40/7/2
f 47/8/3 51/9/3 52/10/3 48/11/3 49/10/3 50/12/3
f 26/13/4 21/14/4 23/15/4 28/16/4
f 28/16/5 23/15/5 24/7/5 27/17/5
f 27/17/6 24/7/6 22/3/6 25/18/6
f 37/3/6 22/3/6 24/7/6 41/3/6
f 41/3/5 24/7/5 23/15/5 42/4/5
f 42/4/4 23/15/4 21/14/4 38/5/4
f 34/19/7 29/20/7 31/21/7 36/22/7
f 36/22/8 31/23/8 32/24/8 35/25/8
f 35/25/9 32/24/9 30/26/9 33/27/9
f 29/20/7 54/28/7 56/29/7 31/21/7
f 31/23/8 56/30/8 55/31/8 32/24/8
f 32/24/9 55/31/9 53/32/9 30/26/9
f 43/33/7 34/19/7 36/22/7 45/34/7
f 45/34/8 36/22/8 35/25/8 46/35/8
f 46/35/9 35/25/9 33/27/9 44/27/9
f 25/18/6 48/36/6 52/37/6 27/17/6
f 27/17/5 52/37/5 51/38/5 28/16/5
f 28/16/4 51/38/4 47/39/4 26/13/4
f 3/40/10 1/41/10 21/14/10 26/13/10
f 21/14/10 1/41/10 11/41/10 38/5/10
f 3/40/10 26/13/10 47/39/10 16/40/10
f 9/42/11 30/26/11 53/32/11 20/42/11
f 10/3/11 33/27/11 30/26/11 9/42/11
f 2/33/12 4/29/12 29/20/12 34/19/12
f 29/20/12 4/29/12 17/29/12 54/28/12
f 33/27/11 10/3/11 15/3/11 44/27/11
f 2/33/12 34/19/12 43/33/12 12/33/12
f 40/7/2 39/6/2 12/33/2 43/33/2 45/34/2 46/35/2 44/27/2 15/3/2
f 17/43/3 50/12/3 49/10/3 20/10/3 53/44/3 55/45/3 56/46/3 54/43/3
f 65/1/2 69/1/2 70/47/2 66/48/2 67/49/2 68/50/2
f 71/51/3 75/52/3 76/53/3 72/2/3 73/54/3 74/55/3
f 62/56/9 72/56/9 76/57/9 64/56/9
f 64/56/8 76/57/8 75/58/8 63/59/8
f 63/59/7 75/58/7 71/60/7 61/60/7
f 61/60/7 57/61/7 59/62/7 63/59/7
f 63/59/8 59/62/8 60/50/8 64/56/8
f 64/56/9 60/50/9 58/63/9 62/56/9
f 57/61/7 66/48/7 70/47/7 59/62/7
f 59/62/8 70/47/8 69/1/8 60/50/8
f 60/50/9 69/1/9 65/1/9 58/63/9
f 57/61/12 2/33/12 12/33/12 66/48/12
f 57/61/12 61/60/12 4/29/12 2/33/12
f 4/29/12 61/60/12 71/60/12 17/29/12
f 11/41/2 67/49/2 66/48/2 12/33/2 39/6/2 38/5/2
f 47/8/3 50/12/3 17/43/3 71/51/3 74/55/3 16/64/3
f 78/56/13 79/1/13 80/1/13 77/65/13
f 79/1/13 82/50/13 81/63/13 80/1/13
f 77/65/13 84/56/13 83/57/13 78/56/13
f 62/56/14 58/63/14 79/1/14 78/56/14
f 77/65/12 80/1/12 8/1/12 7/66/12
f 77/65/12 7/66/12 19/66/12 84/56/12
f 62/56/14 78/56/14 83/57/14 72/56/14
f 8/1/12 80/1/12 81/63/12 14/1/12
f 79/1/14 58/63/14 65/1/14 82/50/14
f 65/1/2 68/50/2 13/1/2 14/1/2 81/63/2 82/50/2
f 18/2/3 73/54/3 72/2/3 83/2/3 84/2/3 19/2/3
f 85/41/15 88/67/15 87/40/15 86/41/15
f 89/68/16 92/40/16 91/40/16 90/41/16
f 1/41/17 3/40/17 88/67/17 85/41/17
f 86/41/10 87/40/10 92/40/10 89/68/10
f 94/36/18 95/3/18 96/69/18 93/37/18
f 98/37/19 99/69/19 100/69/19 97/18/19
f 95/3/18 104/69/18 103/3/18 96/69/18
f 101/69/19 100/69/19 99/69/19 102/7/19
f 97/18/19 108/36/19 107/37/19 98/37/19
f 105/36/18 94/36/18 93/37/18 106/36/18
f 25/18/20 22/3/20 95/3/20 94/36/20
f 93/37/10 96/69/10 99/69/10 98/37/10
f 93/37/10 98/37/10 107/37/10 106/36/10
f 25/18/20 94/36/20 105/36/20 48/36/20
f 99/69/10 96/69/10 103/3/10 102/7/10
f 95/3/20 22/3/20 37/3/20 104/69/20
f 10/3/21 9/42/21 97/42/21 100/69/21
f 97/42/21 9/42/21 20/42/21 108/42/21
f 10/3/21 100/69/21 101/69/21 15/3/21
f 37/3/2 40/7/2 15/3/2 101/69/2 102/7/2 103/3/2 104/69/2
f 20/10/3 49/10/3 48/11/3 105/10/3 106/10/3 107/10/3 108/10/3
f 109/70/22 113/71/22 114/72/22 115/73/22 110/41/22 111/68/22 112/74/22
f 116/64/23 120/64/23 121/75/23 122/76/23 117/77/23 118/78/23 119/79/23
f 109/70/24 124/80/24 127/81/24 113/71/24
f 113/71/25 127/81/25 126/82/25 114/72/25
f 114/72/26 126/82/26 125/83/26 115/73/26
f 115/73/27 125/83/27 123/41/27 110/41/27
f 128/84/24 117/77/24 122/76/24 130/85/24
f 130/85/25 122/76/25 121/75/25 131/86/25
f 131/86/26 121/75/26 120/64/26 132/87/26
f 132/87/27 120/64/27 116/64/27 129/75/27
f 109/70/28 5/1/28 13/1/28 124/80/28
f 111/68/2 110/41/2 1/41/2 85/41/2 86/41/2 89/68/2 90/41/2
f 119/79/29 118/78/29 112/74/29 111/68/29 90/41/29 91/79/29
f 1/41/10 110/41/10 123/41/10 11/41/10
f 118/78/28 117/77/28 6/2/28 5/1/28 109/70/28 112/74/28
f 116/64/10 3/64/10 16/64/10 129/75/10
f 6/2/28 117/77/28 128/84/28 18/2/28
f 3/64/3 116/64/3 119/79/3 91/79/3 92/64/3 87/64/3 88/64/3
f 68/50/2 67/49/2 11/41/2 123/41/2 125/83/2 126/82/2 127/81/2 124/80/2 13/1/2
f 16/64/3 74/55/3 73/54/3 18/2/3 128/84/3 130/85/3 131/86/3 132/87/3 129/75/3
