# Blender 4.5.0
# www.blender.org
mtllib model.mtl
o Cube
v 1.000000 1.000000 -1.000000
v 1.000000 -1.000000 -1.000000
v 1.000000 1.000000 1.000000
v 1.000000 -1.000000 1.000000
v -1.000000 1.000000 -1.000000
v -1.000000 -1.000000 -1.000000
v -1.000000 1.000000 1.000000
v -1.000000 -1.000000 1.000000
v 0.500000 2.500000 1.000000
v -0.500000 2.500000 1.000000
v 1.000000 2.000000 -1.000000
v -1.000000 2.000000 -1.000000
v 2.000000 1.000000 -1.000000
v 0.500000 3.500000 1.000000
v -0.500000 3.500000 1.000000
v 0.500000 2.500000 0.500000
v -0.500000 2.500000 0.500000
v 0.500000 3.500000 0.500000
v -0.500000 3.500000 0.500000
v 1.000000 3.800000 -1.000000
v 0.800000 4.000000 -0.800000
v 0.941421 3.941422 -0.941421
v -0.800000 4.000000 -0.800000
v -1.000000 3.800000 -1.000000
v -0.941421 3.941422 -0.941421
v 0.800000 4.000000 0.800000
v 0.941421 3.941422 0.941421
v -0.800000 4.000000 0.800000
v -0.941421 3.941422 0.941421
v 1.000000 2.000000 0.836614
v 0.836614 2.163386 1.000000
v 0.836614 2.000000 1.000000
v 1.115532 2.000000 1.115532
v 0.952145 2.047855 0.952145
v -0.836614 2.163386 1.000000
v -1.000000 2.000000 0.836614
v -1.000000 1.836614 1.000000
v -1.000000 2.000000 1.163386
v -0.836614 2.000000 1.000000
v -0.952145 2.047855 0.952145
v 0.836614 3.701968 1.000000
v 1.000000 3.800000 0.836614
v 0.941605 3.940979 0.941605
v 0.836614 3.800000 1.000000
v 0.952145 3.771287 0.952145
v -1.000000 3.800000 0.836614
v -0.836614 3.701968 1.000000
v -0.836614 3.800000 1.000000
v -0.941605 3.940979 0.941605
v -0.952145 3.771287 0.952145
v 1.707107 1.800000 1.707107
v 1.525580 2.000000 1.525580
v 1.508267 2.000000 1.728620
v 1.698222 1.861803 1.698222
v 1.672438 1.917557 1.672438
v 1.632279 1.961803 1.632279
v 1.581675 1.990211 1.581675
v 1.798833 2.000000 -1.000000
v 2.000000 1.800000 -1.000000
v 1.860997 1.990211 -1.000000
v 1.917076 1.961803 -1.000000
v 1.961581 1.917557 -1.000000
v 1.990154 1.861803 -1.000000
v -0.701741 2.000000 1.967730
v -1.000000 2.000000 1.700000
v -1.000000 1.700000 2.000000
v -0.848380 2.000000 1.938917
v -0.848134 1.955487 1.983569
v -0.915786 1.964832 1.955620
v -1.000000 1.955487 1.847247
v -0.955580 2.000000 1.842689
v -0.964936 1.964832 1.911501
v -0.955745 1.847247 1.995212
v -1.000000 1.847247 1.955487
v -0.965017 1.915188 1.961028
v 1.707107 1.200000 1.707107
v 1.525580 1.000000 1.525580
v 1.728620 1.000000 1.508267
v 1.698222 1.138197 1.698222
v 1.672438 1.082443 1.672438
v 1.632279 1.038197 1.632279
v 1.581675 1.009789 1.581675
v -1.000000 1.000000 1.798833
v -1.000000 1.200000 2.000000
v -1.000000 1.009789 1.860997
v -1.000000 1.038197 1.917076
v -1.000000 1.082443 1.961581
v -1.000000 1.138197 1.990154
v 1.000000 0.333333 -1.000000
v 1.000000 -0.333333 -1.000000
v -1.000000 -0.333333 1.000000
v -1.000000 0.333333 1.000000
v 1.000000 0.333333 1.000000
v 1.000000 -0.333333 1.000000
v -1.000000 0.333333 -1.000000
v -1.000000 -0.333333 -1.000000
v 0.646447 0.333333 -0.646447
v 0.646447 -0.333333 -0.646447
v -0.646447 -0.333333 0.646447
v -0.646447 0.333333 0.646447
v 0.646447 0.333333 0.646447
v 0.646447 -0.333333 0.646447
v -0.646447 0.333333 -0.646447
v -0.646447 -0.333333 -0.646447
vn -0.0000 -0.0000 -1.0000
vn -0.0000 -0.0000 1.0000
vn -1.0000 -0.0000 -0.0000
vn -0.0000 -1.0000 -0.0000
vn 1.0000 -0.0000 -0.0000
vn -0.0000 1.0000 -0.0000
vn -0.0000 0.9239 0.3827
vn 0.3827 0.9239 -0.0000
vn -0.3827 0.9239 -0.0000
vn -0.0000 0.9239 -0.3827
vn -0.0000 0.3827 -0.9239
vn 0.2534 0.8652 0.4326
vn -0.8096 0.4965 0.3131
vn 0.6373 0.0677 0.7677
vn -0.6373 0.0677 0.7677
vn 0.3827 -0.0000 0.9239
vn 0.9239 -0.0000 0.3827
vn -0.3827 -0.0000 0.9239
vn -0.9239 -0.0000 0.3827
vn 0.9239 0.3827 -0.0000
vn -0.0000 0.3827 0.9239
vn -0.9239 0.3827 -0.0000
vn 0.2790 0.1758 0.9441
vn 0.5029 0.5434 0.6721
vn 0.5133 0.7836 0.3500
vn 0.3830 0.9145 0.1304
vn 0.1587 0.9872 0.0135
vn 0.1555 0.9877 0.0168
vn 0.4514 0.8910 0.0488
vn 0.7030 0.7071 0.0761
vn 0.8858 0.4540 0.0958
vn 0.9820 0.1564 0.1062
vn -0.1544 0.6993 0.6980
vn -0.3487 0.8529 0.3885
vn -0.6773 0.6993 0.2286
vn -0.8294 0.3951 0.3949
vn -0.6491 0.2365 0.7231
vn -0.3034 0.3951 0.8671
vn -0.5361 0.5967 0.5972
vn 0.9441 -0.1758 0.2790
vn 0.6721 -0.5434 0.5029
vn 0.3500 -0.7836 0.5133
vn 0.1304 -0.9145 0.3830
vn 0.0135 -0.9872 0.1587
vn 0.1062 -0.1564 0.9820
vn 0.0958 -0.4540 0.8858
vn 0.0761 -0.7071 0.7030
vn 0.0488 -0.8910 0.4514
vn 0.0168 -0.9877 0.1555
vn 0.1076 -0.0000 0.9942
vn 0.9942 -0.0000 0.1076
vt 0.625000 0.500000
vt 0.625000 0.250000
vt 0.541667 0.750000
vt 0.625000 0.750000
vt 0.625000 1.000000
vt 0.541667 1.000000
vt 0.541667 0.000000
vt 0.625000 0.000000
vt 0.541667 0.250000
vt 0.125000 0.500000
vt 0.375000 0.500000
vt 0.375000 0.750000
vt 0.125000 0.750000
vt 0.541667 0.500000
vt 0.812500 0.750000
vt 0.687500 0.750000
vt 0.687500 0.750000
vt 0.812500 0.750000
vt 0.650000 0.725000
vt 0.850000 0.725000
vt 0.870028 0.747649
vt 0.628661 0.746339
vt 0.650000 0.525000
vt 0.626731 0.501731
vt 0.850000 0.525000
vt 0.871339 0.503661
vt 0.625000 0.250000
vt 0.625000 0.500000
vt 0.625000 0.250000
vt 0.625000 0.729577
vt 0.625000 0.749594
vt 0.644968 0.750000
vt 0.645423 0.750000
vt 0.625000 0.750000
vt 0.625000 0.020267
vt 0.625000 0.000000
vt 0.625000 0.000000
vt 0.645423 0.750000
vt 0.625338 0.750000
vt 0.625000 0.729712
vt 0.628650 0.746350
vt 0.645423 0.750000
vt 0.625000 0.020423
vt 0.625000 0.000619
vt 0.625000 0.007299
vt 0.854577 0.750000
vt 0.875000 0.750000
vt 0.875000 0.750000
vt 0.854577 0.750000
vt 0.870044 0.747657
vt 0.854577 0.750000
vt 0.625000 0.007322
vt 0.625000 0.750723
vt 0.632840 0.760523
vt 0.625000 0.768363
vt 0.625000 0.756091
vt 0.625000 0.760211
vt 0.625000 0.764777
vt 0.625000 0.750000
vt 0.625000 0.750000
vt 0.625000 0.500000
vt 0.625000 0.747178
vt 0.625000 0.500096
vt 0.625000 0.749277
vt 0.625000 0.500025
vt 0.846205 0.751251
vt 0.859910 0.750555
vt 0.866506 0.750369
vt 0.860338 0.750637
vt 0.870294 0.750112
vt 0.625076 0.995837
vt 0.625000 0.869253
vt 0.625007 0.999553
vt 0.625407 0.985568
vt 0.625264 0.991610
vt 0.871322 0.750094
vt 0.625000 0.750000
vt 0.625023 0.750700
vt 0.625000 0.731637
vt 0.625073 0.752749
vt 0.625000 0.731637
vt 0.625080 0.756012
vt 0.625027 0.760184
vt 0.625001 0.999901
vt 0.625023 0.750700
vt 0.625004 0.999616
vt 0.625073 0.752749
vt 0.625000 1.000000
vt 0.625932 0.971524
vt 0.375000 0.250000
vt 0.458333 0.250000
vt 0.458333 0.500000
vt 0.458333 0.750000
vt 0.375000 0.000000
vt 0.458333 0.000000
vt 0.458333 1.000000
vt 0.375000 1.000000
s 0
usemtl Material
f 1/1/1 5/2/1 12/2/1 11/1/1
f 93/3/2 3/4/2 7/5/2 92/6/2
f 92/7/3 7/8/3 5/2/3 95/9/3
f 6/10/4 2/11/4 4/12/4 8/13/4
f 89/14/5 1/1/5 3/4/5 93/3/5
f 95/9/1 5/2/1 1/1/1 89/14/1
f 10/15/6 9/16/6 16/16/6 17/15/6
f 17/15/2 16/16/2 18/17/2 19/18/2
f 9/16/3 14/17/3 18/17/3 16/16/3
f 14/17/4 15/18/4 19/18/4 18/17/4
f 15/18/5 10/15/5 17/15/5 19/18/5
f 26/19/7 28/20/7 29/21/7 27/22/7
f 21/23/8 26/19/8 27/22/8 22/24/8
f 28/20/9 23/25/9 25/26/9 29/21/9
f 23/25/10 21/23/10 22/24/10 25/26/10
f 25/27/11 22/24/11 20/28/11 24/29/11
f 21/23/6 23/25/6 28/20/6 26/19/6
f 11/1/1 12/2/1 24/29/1 20/28/1
f 30/30/12 34/31/12 31/32/12 32/33/12 33/34/12
f 35/8/13 40/8/13 36/35/13 37/36/13 38/37/13 39/8/13
f 41/38/14 45/39/14 42/40/14 43/41/14 44/42/14
f 46/43/15 50/44/15 47/8/15 48/8/15 49/45/15
f 41/38/16 31/32/16 34/31/16 45/39/16
f 45/39/17 34/31/17 30/30/17 42/40/17
f 35/46/18 47/46/18 50/47/18 40/48/18
f 40/8/19 50/44/19 46/43/19 36/35/19
f 9/16/2 10/15/2 35/46/2 39/49/2 32/33/2 31/32/2
f 14/17/2 9/16/2 31/32/2 41/38/2
f 30/30/5 11/1/5 20/28/5 42/40/5
f 5/2/3 7/8/3 37/36/3 36/35/3 12/2/3
f 10/15/2 15/18/2 47/46/2 35/46/2
f 12/2/3 36/35/3 46/43/3 24/29/3
f 22/24/20 27/22/20 43/41/20 42/40/20 20/28/20
f 27/22/21 29/21/21 49/50/21 48/51/21 44/42/21 43/41/21
f 15/18/2 14/17/2 41/38/2 44/42/2 48/51/2 47/46/2
f 29/52/22 25/27/22 24/29/22 46/43/22 49/45/22
f 51/34/23 54/53/23 53/54/23
f 54/53/24 55/4/24 53/55/24
f 55/4/25 56/56/25 53/55/25
f 56/56/26 57/57/26 53/55/26
f 57/57/27 52/58/27 53/55/27
f 58/1/28 52/59/28 57/60/28 60/61/28
f 60/61/29 57/60/29 56/4/29 61/1/29
f 61/1/30 56/4/30 55/62/30 62/63/30
f 62/63/31 55/62/31 54/64/31 63/65/31
f 63/65/32 54/64/32 51/34/32 59/1/32
f 11/1/6 30/30/6 33/34/6 52/59/6 58/1/6
f 1/1/1 11/1/1 58/1/1 60/61/1 61/1/1 62/63/1 63/65/1 59/1/1 13/1/1
f 64/66/33 67/67/33 69/68/33 68/69/33
f 67/67/34 71/70/34 72/48/34 69/68/34
f 65/36/35 70/8/35 72/8/35 71/8/35
f 70/8/36 74/8/36 75/8/36 72/8/36
f 66/5/37 73/71/37 75/72/37 74/73/37
f 73/71/38 68/74/38 69/75/38 75/72/38
f 69/75/39 72/76/39 75/72/39
f 33/34/6 32/33/6 39/49/6 38/48/6 65/48/6 71/70/6 67/67/6 64/66/6 53/54/6 52/59/6
f 76/77/40 79/78/40 78/79/40
f 79/78/41 80/80/41 78/81/41
f 80/80/42 81/82/42 78/81/42
f 81/82/43 82/83/43 78/81/43
f 82/83/44 77/58/44 78/81/44
f 76/77/45 84/5/45 88/84/45 79/85/45
f 79/85/46 88/84/46 87/86/46 80/87/46
f 80/87/47 87/86/47 86/5/47 81/4/47
f 81/4/48 86/5/48 85/88/48 82/59/48
f 82/59/49 85/88/49 83/5/49 77/4/49
f 84/5/50 76/77/50 51/34/50 53/54/50 64/89/50 68/74/50 73/71/50 66/5/50
f 7/5/4 3/4/4 77/4/4 83/5/4
f 76/77/51 78/79/51 13/1/51 59/1/51 51/34/51
f 3/4/4 1/1/4 13/1/4 78/79/4 77/4/4
f 38/37/3 37/36/3 7/8/3 83/8/3 85/8/3 86/37/3 87/37/3 88/36/3 84/8/3 66/8/3 74/8/3 70/8/3 65/36/3
f 6/90/1 96/91/1 90/92/1 2/11/1
f 90/92/6 96/91/6 104/91/6 98/92/6
f 2/11/5 90/92/5 94/93/5 4/12/5
f 94/93/6 90/92/6 98/92/6 102/93/6
f 8/94/3 91/95/3 96/91/3 6/90/3
f 96/91/6 91/95/6 99/95/6 104/91/6
f 4/12/2 94/93/2 91/96/2 8/97/2
f 91/96/6 94/93/6 102/93/6 99/96/6
f 104/91/1 103/9/1 97/14/1 98/92/1
f 98/92/5 97/14/5 101/3/5 102/93/5
f 99/95/3 100/7/3 103/9/3 104/91/3
f 102/93/2 101/3/2 100/6/2 99/96/2
f 93/3/4 92/6/4 100/6/4 101/3/4
f 92/7/4 95/9/4 103/9/4 100/7/4
f 89/14/4 93/3/4 101/3/4 97/14/4
f 95/9/4 89/14/4 97/14/4 103/9/4
